<svg id="Слой_1" data-name="Слой 1" xmlns="http://www.w3.org/2000/svg" viewBox="0 0 51.19 50">
  <path d="M31.07,44.52A21.69,21.69,0,0,1,9.38,22.83,17.35,17.35,0,0,1,26.74,5.48,13.88,13.88,0,0,1,40.62,19.36,11.11,11.11,0,0,1,29.51,30.47a8.88,8.88,0,0,1-8.88-8.89,7.11,7.11,0,0,1,7.1-7.11,5.69,5.69,0,0,1,5.69,5.69,4.55,4.55,0,0,1-4.55,4.55,3.64,3.64,0,0,1-3.64-3.64,2.91,2.91,0,0,1,2.91-2.91" style="fill: none;stroke: #efe01c;stroke-miterlimit: 10;stroke-width: 3px"/>
  <rect width="1.7" style="fill: #efe01c"/>
  <rect x="50" y="50" width="1.19" style="fill: #efe01c"/>
</svg>
