<svg id="Слой_1" data-name="Слой 1" xmlns="http://www.w3.org/2000/svg" viewBox="0 0 51.19 50">
  <path d="M5.52,23.38A17.59,17.59,0,0,0,23.12,41" style="fill: none;stroke: #efe01c;stroke-miterlimit: 10;stroke-width: 3px"/>
  <path d="M34.83,29.26A11.71,11.71,0,0,1,23.12,41" style="fill: none;stroke: #efe01c;stroke-miterlimit: 10;stroke-width: 3px"/>
  <path d="M25.12,19.55a9.71,9.71,0,0,1,9.71,9.71" style="fill: none;stroke: #efe01c;stroke-miterlimit: 10;stroke-width: 3px"/>
  <path d="M25.12,3.78a19.59,19.59,0,0,0-19.6,19.6" style="fill: none;stroke: #efe01c;stroke-miterlimit: 10;stroke-width: 3px"/>
  <rect x="8.69" y="4.23" width="0.96" transform="translate(18.33 8.46) rotate(180)" style="fill: #efe01c"/>
  <path d="M44.48,26.62A17.59,17.59,0,0,0,26.88,9" style="fill: none;stroke: #efe01c;stroke-miterlimit: 10;stroke-width: 3px"/>
  <path d="M15.17,20.74A11.71,11.71,0,0,1,26.88,9" style="fill: none;stroke: #efe01c;stroke-miterlimit: 10;stroke-width: 3px"/>
  <path d="M24.88,30.45a9.71,9.71,0,0,1-9.71-9.71" style="fill: none;stroke: #efe01c;stroke-miterlimit: 10;stroke-width: 3px"/>
  <path d="M24.88,46.22a19.59,19.59,0,0,0,19.6-19.6" style="fill: none;stroke: #efe01c;stroke-miterlimit: 10;stroke-width: 3px"/>
  <rect width="1.19" style="fill: #efe01c"/>
  <rect x="50" y="50" width="1.19" style="fill: #efe01c"/>
</svg>
